<svg width="20" height="20" viewBox="0 0 20 20" fill="none" xmlns="http://www.w3.org/2000/svg">
<g filter="url(#filter0_d_2162_6402)">
<path fill-rule="evenodd" clip-rule="evenodd" d="M4.00147 3.32725C4.05506 1.48057 5.56892 0 7.42857 0H9.59183L11.81 3.32725H9.1718L6.9736 0.0299456C6.62494 0.0761732 6.29281 0.174797 5.9854 0.317645L7.99181 3.32725H4.00147ZM4 3.42857C4 3.39468 4.00049 3.3609 4.00147 3.32725H4V3.42857ZM4 4.30906V8.57143C4 10.465 5.53502 12 7.42857 12H12.5714C14.465 12 16 10.465 16 8.57143V4.30906H4ZM16 3.42857V3.32725H15.9985C15.9449 1.48057 14.4311 0 12.5714 0H10.7718L12.99 3.32725H15.9985C15.9995 3.3609 16 3.39468 16 3.42857ZM11.7673 7.26918C11.9564 7.38188 11.9564 7.66362 11.7673 7.77631L8.78909 9.55127C8.6 9.66396 8.36364 9.52309 8.36364 9.2977L8.36364 5.74779C8.36364 5.5224 8.6 5.38153 8.78909 5.49423L11.7673 7.26918Z" fill="white"/>
</g>
<defs>
<filter id="filter0_d_2162_6402" x="0" y="0" width="20" height="20" filterUnits="userSpaceOnUse" color-interpolation-filters="sRGB">
<feFlood flood-opacity="0" result="BackgroundImageFix"/>
<feColorMatrix in="SourceAlpha" type="matrix" values="0 0 0 0 0 0 0 0 0 0 0 0 0 0 0 0 0 0 127 0" result="hardAlpha"/>
<feOffset dy="4"/>
<feGaussianBlur stdDeviation="2"/>
<feComposite in2="hardAlpha" operator="out"/>
<feColorMatrix type="matrix" values="0 0 0 0 0 0 0 0 0 0 0 0 0 0 0 0 0 0 0.25 0"/>
<feBlend mode="normal" in2="BackgroundImageFix" result="effect1_dropShadow_2162_6402"/>
<feBlend mode="normal" in="SourceGraphic" in2="effect1_dropShadow_2162_6402" result="shape"/>
</filter>
</defs>
</svg>
